<svg xmlns="http://www.w3.org/2000/svg" xmlns:xlink="http://www.w3.org/1999/xlink" width="500" zoomAndPan="magnify" viewBox="0 0 375 374.999991" height="500" preserveAspectRatio="xMidYMid meet" version="1.0"><defs><g/><linearGradient x1="0" gradientTransform="matrix(0.75, 0, 0, 0.75, 0.0000045, 0)" y1="0" x2="499.999979" gradientUnits="userSpaceOnUse" y2="0" id="9399629300"><stop stop-opacity="1" stop-color="rgb(31.799316%, 43.899536%, 100%)" offset="0"/><stop stop-opacity="1" stop-color="rgb(32.064819%, 43.884277%, 99.908447%)" offset="0.00390625"/><stop stop-opacity="1" stop-color="rgb(32.331848%, 43.869019%, 99.81842%)" offset="0.0078125"/><stop stop-opacity="1" stop-color="rgb(32.597351%, 43.85376%, 99.728394%)" offset="0.0117187"/><stop stop-opacity="1" stop-color="rgb(32.86438%, 43.838501%, 99.638367%)" offset="0.015625"/><stop stop-opacity="1" stop-color="rgb(33.129883%, 43.823242%, 99.54834%)" offset="0.0195312"/><stop stop-opacity="1" stop-color="rgb(33.396912%, 43.807983%, 99.458313%)" offset="0.0234375"/><stop stop-opacity="1" stop-color="rgb(33.66394%, 43.792725%, 99.36676%)" offset="0.0273438"/><stop stop-opacity="1" stop-color="rgb(33.930969%, 43.777466%, 99.276733%)" offset="0.03125"/><stop stop-opacity="1" stop-color="rgb(34.196472%, 43.762207%, 99.186707%)" offset="0.0351562"/><stop stop-opacity="1" stop-color="rgb(34.463501%, 43.746948%, 99.09668%)" offset="0.0390625"/><stop stop-opacity="1" stop-color="rgb(34.729004%, 43.731689%, 99.006653%)" offset="0.0429687"/><stop stop-opacity="1" stop-color="rgb(34.996033%, 43.716431%, 98.916626%)" offset="0.046875"/><stop stop-opacity="1" stop-color="rgb(35.261536%, 43.701172%, 98.826599%)" offset="0.0507812"/><stop stop-opacity="1" stop-color="rgb(35.528564%, 43.685913%, 98.736572%)" offset="0.0546875"/><stop stop-opacity="1" stop-color="rgb(35.794067%, 43.670654%, 98.64502%)" offset="0.0585938"/><stop stop-opacity="1" stop-color="rgb(36.061096%, 43.655396%, 98.554993%)" offset="0.0625"/><stop stop-opacity="1" stop-color="rgb(36.328125%, 43.640137%, 98.464966%)" offset="0.0664062"/><stop stop-opacity="1" stop-color="rgb(36.595154%, 43.624878%, 98.374939%)" offset="0.0703125"/><stop stop-opacity="1" stop-color="rgb(36.860657%, 43.609619%, 98.284912%)" offset="0.0742187"/><stop stop-opacity="1" stop-color="rgb(37.127686%, 43.59436%, 98.194885%)" offset="0.078125"/><stop stop-opacity="1" stop-color="rgb(37.393188%, 43.579102%, 98.104858%)" offset="0.0820312"/><stop stop-opacity="1" stop-color="rgb(37.660217%, 43.563843%, 98.014832%)" offset="0.0859375"/><stop stop-opacity="1" stop-color="rgb(37.92572%, 43.548584%, 97.923279%)" offset="0.0898437"/><stop stop-opacity="1" stop-color="rgb(38.192749%, 43.533325%, 97.833252%)" offset="0.09375"/><stop stop-opacity="1" stop-color="rgb(38.458252%, 43.518066%, 97.743225%)" offset="0.0976562"/><stop stop-opacity="1" stop-color="rgb(38.725281%, 43.502808%, 97.653198%)" offset="0.101562"/><stop stop-opacity="1" stop-color="rgb(38.99231%, 43.487549%, 97.563171%)" offset="0.105469"/><stop stop-opacity="1" stop-color="rgb(39.259338%, 43.47229%, 97.473145%)" offset="0.109375"/><stop stop-opacity="1" stop-color="rgb(39.524841%, 43.457031%, 97.381592%)" offset="0.113281"/><stop stop-opacity="1" stop-color="rgb(39.79187%, 43.441772%, 97.291565%)" offset="0.117188"/><stop stop-opacity="1" stop-color="rgb(40.057373%, 43.426514%, 97.201538%)" offset="0.121094"/><stop stop-opacity="1" stop-color="rgb(40.324402%, 43.411255%, 97.111511%)" offset="0.125"/><stop stop-opacity="1" stop-color="rgb(40.589905%, 43.395996%, 97.021484%)" offset="0.128906"/><stop stop-opacity="1" stop-color="rgb(40.856934%, 43.380737%, 96.931458%)" offset="0.132812"/><stop stop-opacity="1" stop-color="rgb(41.122437%, 43.365479%, 96.841431%)" offset="0.136719"/><stop stop-opacity="1" stop-color="rgb(41.389465%, 43.35022%, 96.751404%)" offset="0.140625"/><stop stop-opacity="1" stop-color="rgb(41.654968%, 43.334961%, 96.659851%)" offset="0.144531"/><stop stop-opacity="1" stop-color="rgb(41.921997%, 43.319702%, 96.569824%)" offset="0.148437"/><stop stop-opacity="1" stop-color="rgb(42.189026%, 43.304443%, 96.479797%)" offset="0.152344"/><stop stop-opacity="1" stop-color="rgb(42.456055%, 43.289185%, 96.389771%)" offset="0.15625"/><stop stop-opacity="1" stop-color="rgb(42.721558%, 43.273926%, 96.299744%)" offset="0.160156"/><stop stop-opacity="1" stop-color="rgb(42.988586%, 43.258667%, 96.209717%)" offset="0.164062"/><stop stop-opacity="1" stop-color="rgb(43.254089%, 43.243408%, 96.11969%)" offset="0.167969"/><stop stop-opacity="1" stop-color="rgb(43.521118%, 43.229675%, 96.029663%)" offset="0.171875"/><stop stop-opacity="1" stop-color="rgb(43.786621%, 43.214417%, 95.93811%)" offset="0.175781"/><stop stop-opacity="1" stop-color="rgb(44.05365%, 43.199158%, 95.848083%)" offset="0.179687"/><stop stop-opacity="1" stop-color="rgb(44.319153%, 43.183899%, 95.758057%)" offset="0.183594"/><stop stop-opacity="1" stop-color="rgb(44.586182%, 43.16864%, 95.66803%)" offset="0.1875"/><stop stop-opacity="1" stop-color="rgb(44.85321%, 43.153381%, 95.578003%)" offset="0.191406"/><stop stop-opacity="1" stop-color="rgb(45.120239%, 43.138123%, 95.487976%)" offset="0.195312"/><stop stop-opacity="1" stop-color="rgb(45.385742%, 43.122864%, 95.396423%)" offset="0.199219"/><stop stop-opacity="1" stop-color="rgb(45.652771%, 43.107605%, 95.306396%)" offset="0.203125"/><stop stop-opacity="1" stop-color="rgb(45.918274%, 43.092346%, 95.21637%)" offset="0.207031"/><stop stop-opacity="1" stop-color="rgb(46.185303%, 43.077087%, 95.126343%)" offset="0.210938"/><stop stop-opacity="1" stop-color="rgb(46.450806%, 43.061829%, 95.036316%)" offset="0.214844"/><stop stop-opacity="1" stop-color="rgb(46.717834%, 43.04657%, 94.946289%)" offset="0.21875"/><stop stop-opacity="1" stop-color="rgb(46.983337%, 43.031311%, 94.856262%)" offset="0.222656"/><stop stop-opacity="1" stop-color="rgb(47.250366%, 43.016052%, 94.766235%)" offset="0.226562"/><stop stop-opacity="1" stop-color="rgb(47.515869%, 43.000793%, 94.674683%)" offset="0.230469"/><stop stop-opacity="1" stop-color="rgb(47.782898%, 42.985535%, 94.584656%)" offset="0.234375"/><stop stop-opacity="1" stop-color="rgb(48.049927%, 42.970276%, 94.494629%)" offset="0.238281"/><stop stop-opacity="1" stop-color="rgb(48.316956%, 42.955017%, 94.404602%)" offset="0.242188"/><stop stop-opacity="1" stop-color="rgb(48.582458%, 42.939758%, 94.314575%)" offset="0.246094"/><stop stop-opacity="1" stop-color="rgb(48.849487%, 42.9245%, 94.224548%)" offset="0.25"/><stop stop-opacity="1" stop-color="rgb(49.11499%, 42.909241%, 94.134521%)" offset="0.253906"/><stop stop-opacity="1" stop-color="rgb(49.382019%, 42.893982%, 94.044495%)" offset="0.257812"/><stop stop-opacity="1" stop-color="rgb(49.647522%, 42.878723%, 93.952942%)" offset="0.261719"/><stop stop-opacity="1" stop-color="rgb(49.914551%, 42.863464%, 93.862915%)" offset="0.265625"/><stop stop-opacity="1" stop-color="rgb(50.180054%, 42.848206%, 93.772888%)" offset="0.269531"/><stop stop-opacity="1" stop-color="rgb(50.447083%, 42.832947%, 93.682861%)" offset="0.273437"/><stop stop-opacity="1" stop-color="rgb(50.714111%, 42.817688%, 93.592834%)" offset="0.277344"/><stop stop-opacity="1" stop-color="rgb(50.98114%, 42.802429%, 93.502808%)" offset="0.28125"/><stop stop-opacity="1" stop-color="rgb(51.246643%, 42.78717%, 93.411255%)" offset="0.285156"/><stop stop-opacity="1" stop-color="rgb(51.513672%, 42.771912%, 93.321228%)" offset="0.289062"/><stop stop-opacity="1" stop-color="rgb(51.779175%, 42.756653%, 93.231201%)" offset="0.292969"/><stop stop-opacity="1" stop-color="rgb(52.046204%, 42.741394%, 93.141174%)" offset="0.296875"/><stop stop-opacity="1" stop-color="rgb(52.311707%, 42.726135%, 93.051147%)" offset="0.300781"/><stop stop-opacity="1" stop-color="rgb(52.578735%, 42.710876%, 92.961121%)" offset="0.304687"/><stop stop-opacity="1" stop-color="rgb(52.844238%, 42.695618%, 92.871094%)" offset="0.308594"/><stop stop-opacity="1" stop-color="rgb(53.111267%, 42.680359%, 92.781067%)" offset="0.3125"/><stop stop-opacity="1" stop-color="rgb(53.37677%, 42.6651%, 92.689514%)" offset="0.316406"/><stop stop-opacity="1" stop-color="rgb(53.643799%, 42.649841%, 92.599487%)" offset="0.320312"/><stop stop-opacity="1" stop-color="rgb(53.910828%, 42.634583%, 92.50946%)" offset="0.324219"/><stop stop-opacity="1" stop-color="rgb(54.177856%, 42.619324%, 92.419434%)" offset="0.328125"/><stop stop-opacity="1" stop-color="rgb(54.443359%, 42.604065%, 92.329407%)" offset="0.332031"/><stop stop-opacity="1" stop-color="rgb(54.710388%, 42.588806%, 92.23938%)" offset="0.335937"/><stop stop-opacity="1" stop-color="rgb(54.975891%, 42.573547%, 92.149353%)" offset="0.339844"/><stop stop-opacity="1" stop-color="rgb(55.24292%, 42.558289%, 92.059326%)" offset="0.34375"/><stop stop-opacity="1" stop-color="rgb(55.508423%, 42.54303%, 91.967773%)" offset="0.347656"/><stop stop-opacity="1" stop-color="rgb(55.775452%, 42.527771%, 91.877747%)" offset="0.351562"/><stop stop-opacity="1" stop-color="rgb(56.040955%, 42.512512%, 91.78772%)" offset="0.355469"/><stop stop-opacity="1" stop-color="rgb(56.307983%, 42.497253%, 91.697693%)" offset="0.359375"/><stop stop-opacity="1" stop-color="rgb(56.575012%, 42.481995%, 91.607666%)" offset="0.363281"/><stop stop-opacity="1" stop-color="rgb(56.842041%, 42.466736%, 91.517639%)" offset="0.367187"/><stop stop-opacity="1" stop-color="rgb(57.107544%, 42.451477%, 91.426086%)" offset="0.371094"/><stop stop-opacity="1" stop-color="rgb(57.374573%, 42.436218%, 91.33606%)" offset="0.375"/><stop stop-opacity="1" stop-color="rgb(57.640076%, 42.420959%, 91.246033%)" offset="0.378906"/><stop stop-opacity="1" stop-color="rgb(57.907104%, 42.405701%, 91.156006%)" offset="0.382812"/><stop stop-opacity="1" stop-color="rgb(58.172607%, 42.390442%, 91.065979%)" offset="0.386719"/><stop stop-opacity="1" stop-color="rgb(58.439636%, 42.375183%, 90.975952%)" offset="0.390625"/><stop stop-opacity="1" stop-color="rgb(58.705139%, 42.359924%, 90.885925%)" offset="0.394531"/><stop stop-opacity="1" stop-color="rgb(58.972168%, 42.344666%, 90.795898%)" offset="0.398438"/><stop stop-opacity="1" stop-color="rgb(59.239197%, 42.329407%, 90.704346%)" offset="0.402344"/><stop stop-opacity="1" stop-color="rgb(59.506226%, 42.314148%, 90.614319%)" offset="0.40625"/><stop stop-opacity="1" stop-color="rgb(59.771729%, 42.298889%, 90.524292%)" offset="0.410156"/><stop stop-opacity="1" stop-color="rgb(60.038757%, 42.285156%, 90.434265%)" offset="0.414062"/><stop stop-opacity="1" stop-color="rgb(60.30426%, 42.269897%, 90.344238%)" offset="0.417969"/><stop stop-opacity="1" stop-color="rgb(60.571289%, 42.254639%, 90.254211%)" offset="0.421875"/><stop stop-opacity="1" stop-color="rgb(60.836792%, 42.23938%, 90.164185%)" offset="0.425781"/><stop stop-opacity="1" stop-color="rgb(61.103821%, 42.224121%, 90.074158%)" offset="0.429688"/><stop stop-opacity="1" stop-color="rgb(61.369324%, 42.208862%, 89.982605%)" offset="0.433594"/><stop stop-opacity="1" stop-color="rgb(61.636353%, 42.193604%, 89.892578%)" offset="0.4375"/><stop stop-opacity="1" stop-color="rgb(61.901855%, 42.178345%, 89.802551%)" offset="0.441406"/><stop stop-opacity="1" stop-color="rgb(62.168884%, 42.163086%, 89.712524%)" offset="0.445312"/><stop stop-opacity="1" stop-color="rgb(62.435913%, 42.147827%, 89.622498%)" offset="0.449219"/><stop stop-opacity="1" stop-color="rgb(62.702942%, 42.132568%, 89.532471%)" offset="0.453125"/><stop stop-opacity="1" stop-color="rgb(62.968445%, 42.11731%, 89.440918%)" offset="0.457031"/><stop stop-opacity="1" stop-color="rgb(63.235474%, 42.102051%, 89.350891%)" offset="0.460938"/><stop stop-opacity="1" stop-color="rgb(63.500977%, 42.086792%, 89.260864%)" offset="0.464844"/><stop stop-opacity="1" stop-color="rgb(63.768005%, 42.071533%, 89.170837%)" offset="0.46875"/><stop stop-opacity="1" stop-color="rgb(64.033508%, 42.056274%, 89.080811%)" offset="0.472656"/><stop stop-opacity="1" stop-color="rgb(64.300537%, 42.041016%, 88.990784%)" offset="0.476562"/><stop stop-opacity="1" stop-color="rgb(64.56604%, 42.025757%, 88.900757%)" offset="0.480469"/><stop stop-opacity="1" stop-color="rgb(64.833069%, 42.010498%, 88.81073%)" offset="0.484375"/><stop stop-opacity="1" stop-color="rgb(65.100098%, 41.995239%, 88.719177%)" offset="0.488281"/><stop stop-opacity="1" stop-color="rgb(65.367126%, 41.97998%, 88.62915%)" offset="0.492188"/><stop stop-opacity="1" stop-color="rgb(65.632629%, 41.964722%, 88.539124%)" offset="0.496094"/><stop stop-opacity="1" stop-color="rgb(65.899658%, 41.949463%, 88.449097%)" offset="0.5"/><stop stop-opacity="1" stop-color="rgb(66.165161%, 41.934204%, 88.35907%)" offset="0.503906"/><stop stop-opacity="1" stop-color="rgb(66.43219%, 41.918945%, 88.269043%)" offset="0.507812"/><stop stop-opacity="1" stop-color="rgb(66.697693%, 41.903687%, 88.179016%)" offset="0.511719"/><stop stop-opacity="1" stop-color="rgb(66.964722%, 41.888428%, 88.088989%)" offset="0.515625"/><stop stop-opacity="1" stop-color="rgb(67.230225%, 41.873169%, 87.997437%)" offset="0.519531"/><stop stop-opacity="1" stop-color="rgb(67.497253%, 41.85791%, 87.90741%)" offset="0.523437"/><stop stop-opacity="1" stop-color="rgb(67.762756%, 41.842651%, 87.817383%)" offset="0.527344"/><stop stop-opacity="1" stop-color="rgb(68.029785%, 41.827393%, 87.727356%)" offset="0.53125"/><stop stop-opacity="1" stop-color="rgb(68.296814%, 41.812134%, 87.637329%)" offset="0.535156"/><stop stop-opacity="1" stop-color="rgb(68.563843%, 41.796875%, 87.547302%)" offset="0.539062"/><stop stop-opacity="1" stop-color="rgb(68.829346%, 41.781616%, 87.45575%)" offset="0.542969"/><stop stop-opacity="1" stop-color="rgb(69.096375%, 41.766357%, 87.365723%)" offset="0.546875"/><stop stop-opacity="1" stop-color="rgb(69.361877%, 41.751099%, 87.275696%)" offset="0.550781"/><stop stop-opacity="1" stop-color="rgb(69.628906%, 41.73584%, 87.185669%)" offset="0.554687"/><stop stop-opacity="1" stop-color="rgb(69.894409%, 41.720581%, 87.095642%)" offset="0.558594"/><stop stop-opacity="1" stop-color="rgb(70.161438%, 41.705322%, 87.005615%)" offset="0.5625"/><stop stop-opacity="1" stop-color="rgb(70.426941%, 41.690063%, 86.915588%)" offset="0.566406"/><stop stop-opacity="1" stop-color="rgb(70.69397%, 41.674805%, 86.825562%)" offset="0.570312"/><stop stop-opacity="1" stop-color="rgb(70.960999%, 41.659546%, 86.734009%)" offset="0.574219"/><stop stop-opacity="1" stop-color="rgb(71.228027%, 41.644287%, 86.643982%)" offset="0.578125"/><stop stop-opacity="1" stop-color="rgb(71.49353%, 41.629028%, 86.553955%)" offset="0.582031"/><stop stop-opacity="1" stop-color="rgb(71.760559%, 41.61377%, 86.463928%)" offset="0.585937"/><stop stop-opacity="1" stop-color="rgb(72.026062%, 41.598511%, 86.373901%)" offset="0.589844"/><stop stop-opacity="1" stop-color="rgb(72.293091%, 41.583252%, 86.283875%)" offset="0.59375"/><stop stop-opacity="1" stop-color="rgb(72.558594%, 41.567993%, 86.193848%)" offset="0.597656"/><stop stop-opacity="1" stop-color="rgb(72.825623%, 41.552734%, 86.103821%)" offset="0.601562"/><stop stop-opacity="1" stop-color="rgb(73.091125%, 41.537476%, 86.012268%)" offset="0.605469"/><stop stop-opacity="1" stop-color="rgb(73.358154%, 41.522217%, 85.922241%)" offset="0.609375"/><stop stop-opacity="1" stop-color="rgb(73.623657%, 41.506958%, 85.832214%)" offset="0.613281"/><stop stop-opacity="1" stop-color="rgb(73.890686%, 41.491699%, 85.742188%)" offset="0.617187"/><stop stop-opacity="1" stop-color="rgb(74.157715%, 41.47644%, 85.652161%)" offset="0.621094"/><stop stop-opacity="1" stop-color="rgb(74.424744%, 41.461182%, 85.562134%)" offset="0.625"/><stop stop-opacity="1" stop-color="rgb(74.690247%, 41.445923%, 85.470581%)" offset="0.628906"/><stop stop-opacity="1" stop-color="rgb(74.957275%, 41.430664%, 85.380554%)" offset="0.632812"/><stop stop-opacity="1" stop-color="rgb(75.222778%, 41.415405%, 85.290527%)" offset="0.636719"/><stop stop-opacity="1" stop-color="rgb(75.489807%, 41.400146%, 85.2005%)" offset="0.640625"/><stop stop-opacity="1" stop-color="rgb(75.75531%, 41.384888%, 85.110474%)" offset="0.644531"/><stop stop-opacity="1" stop-color="rgb(76.022339%, 41.369629%, 85.020447%)" offset="0.648437"/><stop stop-opacity="1" stop-color="rgb(76.287842%, 41.35437%, 84.93042%)" offset="0.652344"/><stop stop-opacity="1" stop-color="rgb(76.554871%, 41.339111%, 84.840393%)" offset="0.65625"/><stop stop-opacity="1" stop-color="rgb(76.821899%, 41.323853%, 84.74884%)" offset="0.660156"/><stop stop-opacity="1" stop-color="rgb(77.088928%, 41.31012%, 84.658813%)" offset="0.664062"/><stop stop-opacity="1" stop-color="rgb(77.354431%, 41.294861%, 84.568787%)" offset="0.667969"/><stop stop-opacity="1" stop-color="rgb(77.62146%, 41.279602%, 84.47876%)" offset="0.671875"/><stop stop-opacity="1" stop-color="rgb(77.886963%, 41.264343%, 84.388733%)" offset="0.675781"/><stop stop-opacity="1" stop-color="rgb(78.153992%, 41.249084%, 84.298706%)" offset="0.679687"/><stop stop-opacity="1" stop-color="rgb(78.419495%, 41.233826%, 84.208679%)" offset="0.683594"/><stop stop-opacity="1" stop-color="rgb(78.686523%, 41.218567%, 84.118652%)" offset="0.6875"/><stop stop-opacity="1" stop-color="rgb(78.952026%, 41.203308%, 84.0271%)" offset="0.691406"/><stop stop-opacity="1" stop-color="rgb(79.219055%, 41.188049%, 83.937073%)" offset="0.695312"/><stop stop-opacity="1" stop-color="rgb(79.486084%, 41.172791%, 83.847046%)" offset="0.699219"/><stop stop-opacity="1" stop-color="rgb(79.753113%, 41.157532%, 83.757019%)" offset="0.703125"/><stop stop-opacity="1" stop-color="rgb(80.018616%, 41.142273%, 83.666992%)" offset="0.707031"/><stop stop-opacity="1" stop-color="rgb(80.285645%, 41.127014%, 83.576965%)" offset="0.710937"/><stop stop-opacity="1" stop-color="rgb(80.551147%, 41.111755%, 83.485413%)" offset="0.714844"/><stop stop-opacity="1" stop-color="rgb(80.818176%, 41.096497%, 83.395386%)" offset="0.71875"/><stop stop-opacity="1" stop-color="rgb(81.083679%, 41.081238%, 83.305359%)" offset="0.722656"/><stop stop-opacity="1" stop-color="rgb(81.350708%, 41.065979%, 83.215332%)" offset="0.726562"/><stop stop-opacity="1" stop-color="rgb(81.616211%, 41.05072%, 83.125305%)" offset="0.730469"/><stop stop-opacity="1" stop-color="rgb(81.88324%, 41.035461%, 83.035278%)" offset="0.734375"/><stop stop-opacity="1" stop-color="rgb(82.148743%, 41.020203%, 82.945251%)" offset="0.738281"/><stop stop-opacity="1" stop-color="rgb(82.415771%, 41.004944%, 82.855225%)" offset="0.742187"/><stop stop-opacity="1" stop-color="rgb(82.6828%, 40.989685%, 82.763672%)" offset="0.746094"/><stop stop-opacity="1" stop-color="rgb(82.949829%, 40.974426%, 82.673645%)" offset="0.75"/><stop stop-opacity="1" stop-color="rgb(83.215332%, 40.959167%, 82.583618%)" offset="0.753906"/><stop stop-opacity="1" stop-color="rgb(83.482361%, 40.943909%, 82.493591%)" offset="0.757812"/><stop stop-opacity="1" stop-color="rgb(83.747864%, 40.92865%, 82.403564%)" offset="0.761719"/><stop stop-opacity="1" stop-color="rgb(84.014893%, 40.913391%, 82.313538%)" offset="0.765625"/><stop stop-opacity="1" stop-color="rgb(84.280396%, 40.898132%, 82.223511%)" offset="0.769531"/><stop stop-opacity="1" stop-color="rgb(84.547424%, 40.882874%, 82.133484%)" offset="0.773438"/><stop stop-opacity="1" stop-color="rgb(84.812927%, 40.867615%, 82.041931%)" offset="0.777344"/><stop stop-opacity="1" stop-color="rgb(85.079956%, 40.852356%, 81.951904%)" offset="0.78125"/><stop stop-opacity="1" stop-color="rgb(85.346985%, 40.837097%, 81.861877%)" offset="0.785156"/><stop stop-opacity="1" stop-color="rgb(85.614014%, 40.821838%, 81.771851%)" offset="0.789062"/><stop stop-opacity="1" stop-color="rgb(85.879517%, 40.80658%, 81.681824%)" offset="0.792969"/><stop stop-opacity="1" stop-color="rgb(86.146545%, 40.791321%, 81.591797%)" offset="0.796875"/><stop stop-opacity="1" stop-color="rgb(86.412048%, 40.776062%, 81.500244%)" offset="0.800781"/><stop stop-opacity="1" stop-color="rgb(86.679077%, 40.760803%, 81.410217%)" offset="0.804688"/><stop stop-opacity="1" stop-color="rgb(86.94458%, 40.745544%, 81.32019%)" offset="0.808594"/><stop stop-opacity="1" stop-color="rgb(87.211609%, 40.730286%, 81.230164%)" offset="0.8125"/><stop stop-opacity="1" stop-color="rgb(87.477112%, 40.715027%, 81.140137%)" offset="0.816406"/><stop stop-opacity="1" stop-color="rgb(87.744141%, 40.699768%, 81.05011%)" offset="0.820312"/><stop stop-opacity="1" stop-color="rgb(88.009644%, 40.684509%, 80.960083%)" offset="0.824219"/><stop stop-opacity="1" stop-color="rgb(88.276672%, 40.66925%, 80.870056%)" offset="0.828125"/><stop stop-opacity="1" stop-color="rgb(88.543701%, 40.653992%, 80.778503%)" offset="0.832031"/><stop stop-opacity="1" stop-color="rgb(88.81073%, 40.638733%, 80.688477%)" offset="0.835938"/><stop stop-opacity="1" stop-color="rgb(89.076233%, 40.623474%, 80.59845%)" offset="0.839844"/><stop stop-opacity="1" stop-color="rgb(89.343262%, 40.608215%, 80.508423%)" offset="0.84375"/><stop stop-opacity="1" stop-color="rgb(89.608765%, 40.592957%, 80.418396%)" offset="0.847656"/><stop stop-opacity="1" stop-color="rgb(89.875793%, 40.577698%, 80.328369%)" offset="0.851562"/><stop stop-opacity="1" stop-color="rgb(90.141296%, 40.562439%, 80.238342%)" offset="0.855469"/><stop stop-opacity="1" stop-color="rgb(90.408325%, 40.54718%, 80.148315%)" offset="0.859375"/><stop stop-opacity="1" stop-color="rgb(90.673828%, 40.531921%, 80.056763%)" offset="0.863281"/><stop stop-opacity="1" stop-color="rgb(90.940857%, 40.516663%, 79.966736%)" offset="0.867188"/><stop stop-opacity="1" stop-color="rgb(91.207886%, 40.501404%, 79.876709%)" offset="0.871094"/><stop stop-opacity="1" stop-color="rgb(91.474915%, 40.486145%, 79.786682%)" offset="0.875"/><stop stop-opacity="1" stop-color="rgb(91.740417%, 40.470886%, 79.696655%)" offset="0.878906"/><stop stop-opacity="1" stop-color="rgb(92.007446%, 40.455627%, 79.606628%)" offset="0.882812"/><stop stop-opacity="1" stop-color="rgb(92.272949%, 40.440369%, 79.515076%)" offset="0.886719"/><stop stop-opacity="1" stop-color="rgb(92.539978%, 40.42511%, 79.425049%)" offset="0.890625"/><stop stop-opacity="1" stop-color="rgb(92.805481%, 40.409851%, 79.335022%)" offset="0.894531"/><stop stop-opacity="1" stop-color="rgb(93.07251%, 40.394592%, 79.244995%)" offset="0.898438"/><stop stop-opacity="1" stop-color="rgb(93.338013%, 40.379333%, 79.154968%)" offset="0.902344"/><stop stop-opacity="1" stop-color="rgb(93.605042%, 40.365601%, 79.064941%)" offset="0.90625"/><stop stop-opacity="1" stop-color="rgb(93.870544%, 40.350342%, 78.974915%)" offset="0.910156"/><stop stop-opacity="1" stop-color="rgb(94.137573%, 40.335083%, 78.884888%)" offset="0.914062"/><stop stop-opacity="1" stop-color="rgb(94.404602%, 40.319824%, 78.793335%)" offset="0.917969"/><stop stop-opacity="1" stop-color="rgb(94.671631%, 40.304565%, 78.703308%)" offset="0.921875"/><stop stop-opacity="1" stop-color="rgb(94.937134%, 40.289307%, 78.613281%)" offset="0.925781"/><stop stop-opacity="1" stop-color="rgb(95.204163%, 40.274048%, 78.523254%)" offset="0.929688"/><stop stop-opacity="1" stop-color="rgb(95.469666%, 40.258789%, 78.433228%)" offset="0.933594"/><stop stop-opacity="1" stop-color="rgb(95.736694%, 40.24353%, 78.343201%)" offset="0.9375"/><stop stop-opacity="1" stop-color="rgb(96.002197%, 40.228271%, 78.253174%)" offset="0.941406"/><stop stop-opacity="1" stop-color="rgb(96.269226%, 40.213013%, 78.163147%)" offset="0.945312"/><stop stop-opacity="1" stop-color="rgb(96.534729%, 40.197754%, 78.071594%)" offset="0.949219"/><stop stop-opacity="1" stop-color="rgb(96.801758%, 40.182495%, 77.981567%)" offset="0.953125"/><stop stop-opacity="1" stop-color="rgb(97.068787%, 40.167236%, 77.891541%)" offset="0.957031"/><stop stop-opacity="1" stop-color="rgb(97.335815%, 40.151978%, 77.801514%)" offset="0.960938"/><stop stop-opacity="1" stop-color="rgb(97.601318%, 40.136719%, 77.711487%)" offset="0.964844"/><stop stop-opacity="1" stop-color="rgb(97.868347%, 40.12146%, 77.62146%)" offset="0.96875"/><stop stop-opacity="1" stop-color="rgb(98.13385%, 40.106201%, 77.531433%)" offset="0.972656"/><stop stop-opacity="1" stop-color="rgb(98.400879%, 40.090942%, 77.441406%)" offset="0.976562"/><stop stop-opacity="1" stop-color="rgb(98.666382%, 40.075684%, 77.349854%)" offset="0.980469"/><stop stop-opacity="1" stop-color="rgb(98.933411%, 40.060425%, 77.259827%)" offset="0.984375"/><stop stop-opacity="1" stop-color="rgb(99.198914%, 40.045166%, 77.1698%)" offset="0.988281"/><stop stop-opacity="1" stop-color="rgb(99.465942%, 40.029907%, 77.079773%)" offset="0.992188"/><stop stop-opacity="1" stop-color="rgb(99.731445%, 40.014648%, 76.989746%)" offset="0.996094"/><stop stop-opacity="1" stop-color="rgb(99.998474%, 39.99939%, 76.899719%)" offset="1"/></linearGradient><clipPath id="e385409758"><path d="M 60.765625 151.464844 L 314.265625 151.464844 L 314.265625 223.464844 L 60.765625 223.464844 Z M 60.765625 151.464844 " clip-rule="nonzero"/></clipPath><clipPath id="c20e281cb9"><path d="M 67.835938 158.238281 L 191.609375 158.238281 L 191.609375 216.761719 L 67.835938 216.761719 Z M 67.835938 158.238281 " clip-rule="nonzero"/></clipPath><clipPath id="54c05a2526"><path d="M 198 177 L 306.484375 177 L 306.484375 197.992188 L 198 197.992188 Z M 198 177 " clip-rule="nonzero"/></clipPath></defs><rect x="-37.5" fill="url(#9399629300)" width="450" y="-37.499999" height="449.999989"/><g clip-path="url(#e385409758)"><path stroke-linecap="butt" transform="matrix(0.750104, 0, 0, 0.749268, 60.765298, 151.465039)" fill="none" stroke-linejoin="miter" d="M 0.000435793 -0.000260392 L 337.953556 -0.000260392 L 337.953556 96.0935 L 0.000435793 96.0935 Z M 0.000435793 -0.000260392 " stroke="#000000" stroke-width="6" stroke-opacity="1" stroke-miterlimit="4"/></g><g clip-path="url(#c20e281cb9)"><path fill="#000000" d="M 67.835938 158.238281 L 191.609375 158.238281 L 191.609375 216.761719 L 67.835938 216.761719 Z M 67.835938 158.238281 " fill-opacity="1" fill-rule="nonzero"/></g><g clip-path="url(#54c05a2526)"><path fill="#000000" d="M 210.203125 185.726562 C 210.382812 185.738281 210.5625 185.683594 210.703125 185.566406 C 210.839844 185.445312 210.925781 185.28125 210.941406 185.101562 C 210.953125 184.917969 210.898438 184.742188 210.777344 184.601562 C 210.660156 184.464844 210.496094 184.378906 210.3125 184.363281 C 210.292969 184.363281 210.273438 184.363281 210.257812 184.363281 C 210.09375 184.363281 209.9375 184.417969 209.8125 184.523438 L 209.8125 184.527344 C 209.527344 184.769531 209.492188 185.199219 209.734375 185.488281 C 209.855469 185.625 210.019531 185.710938 210.203125 185.726562 Z M 217.726562 178.710938 C 217.609375 178.570312 217.441406 178.488281 217.261719 178.472656 C 217.242188 178.472656 217.222656 178.46875 217.203125 178.46875 C 217.042969 178.46875 216.886719 178.527344 216.761719 178.632812 C 216.621094 178.75 216.539062 178.917969 216.523438 179.097656 C 216.507812 179.28125 216.566406 179.457031 216.683594 179.59375 C 216.804688 179.734375 216.96875 179.820312 217.152344 179.832031 C 217.332031 179.847656 217.511719 179.792969 217.648438 179.671875 C 217.9375 179.429688 217.972656 178.996094 217.726562 178.710938 Z M 225.242188 181.613281 C 228.511719 185.445312 228.046875 191.214844 224.203125 194.472656 C 222.484375 195.933594 220.375 196.644531 218.277344 196.644531 C 215.683594 196.644531 213.105469 195.558594 211.296875 193.441406 C 209.730469 191.605469 208.964844 189.238281 209.140625 186.851562 C 208.953125 186.738281 208.78125 186.59375 208.636719 186.421875 C 207.875 185.53125 207.984375 184.1875 208.878906 183.429688 C 209.769531 182.671875 211.117188 182.777344 211.878906 183.667969 C 212.25 184.101562 212.425781 184.648438 212.378906 185.214844 C 212.335938 185.78125 212.070312 186.292969 211.636719 186.660156 C 211.328125 186.921875 210.960938 187.085938 210.570312 187.144531 C 210.472656 189.089844 211.117188 191.007812 212.398438 192.507812 C 215.152344 195.734375 220.03125 196.125 223.265625 193.378906 C 226.503906 190.632812 226.898438 185.773438 224.140625 182.546875 C 222.878906 181.070312 221.109375 180.132812 219.195312 179.902344 C 219.074219 180.226562 218.871094 180.527344 218.585938 180.769531 C 218.199219 181.097656 217.714844 181.273438 217.210938 181.273438 C 217.152344 181.273438 217.09375 181.273438 217.035156 181.269531 C 216.46875 181.222656 215.953125 180.960938 215.585938 180.527344 C 215.214844 180.097656 215.039062 179.546875 215.082031 178.980469 C 215.128906 178.417969 215.390625 177.902344 215.824219 177.535156 C 216.257812 177.167969 216.8125 176.992188 217.375 177.035156 C 217.945312 177.082031 218.460938 177.347656 218.828125 177.777344 C 219.003906 177.984375 219.132812 178.214844 219.214844 178.457031 C 221.546875 178.699219 223.707031 179.820312 225.242188 181.613281 Z M 292.847656 192.496094 C 292.84375 192.3125 292.769531 192.144531 292.636719 192.015625 C 292.507812 191.894531 292.339844 191.828125 292.164062 191.828125 C 292.15625 191.828125 292.152344 191.828125 292.148438 191.828125 C 291.769531 191.835938 291.46875 192.148438 291.476562 192.527344 C 291.480469 192.710938 291.558594 192.878906 291.6875 193.003906 C 291.820312 193.128906 291.996094 193.199219 292.179688 193.191406 C 292.554688 193.183594 292.855469 192.871094 292.847656 192.496094 Z M 291.265625 183.4375 C 291.269531 183.621094 291.347656 183.789062 291.480469 183.917969 C 291.609375 184.042969 291.785156 184.109375 291.96875 184.105469 C 292.148438 184.101562 292.320312 184.023438 292.445312 183.894531 C 292.574219 183.761719 292.640625 183.589844 292.636719 183.40625 C 292.628906 183.035156 292.324219 182.738281 291.953125 182.738281 C 291.945312 182.738281 291.941406 182.738281 291.9375 182.742188 C 291.558594 182.75 291.257812 183.0625 291.265625 183.4375 Z M 293.632812 190.976562 C 294.046875 191.367188 294.277344 191.894531 294.292969 192.460938 C 294.320312 193.632812 293.386719 194.605469 292.210938 194.632812 C 292.195312 194.632812 292.179688 194.632812 292.160156 194.632812 C 291.910156 194.632812 291.667969 194.585938 291.4375 194.503906 C 289.777344 196.15625 287.542969 197.121094 285.179688 197.171875 C 285.105469 197.175781 285.035156 197.175781 284.964844 197.175781 C 280.011719 197.175781 275.929688 193.222656 275.8125 188.265625 C 275.699219 183.234375 279.707031 179.050781 284.753906 178.933594 C 287.175781 178.882812 289.5 179.78125 291.246094 181.421875 C 291.453125 181.347656 291.671875 181.304688 291.902344 181.300781 C 293.074219 181.277344 294.054688 182.203125 294.082031 183.375 C 294.09375 183.9375 293.886719 184.476562 293.492188 184.886719 C 293.101562 185.296875 292.570312 185.53125 292 185.542969 C 291.984375 185.542969 291.96875 185.542969 291.949219 185.542969 C 291.398438 185.542969 290.882812 185.335938 290.480469 184.957031 C 290.070312 184.566406 289.835938 184.039062 289.824219 183.472656 C 289.8125 183.058594 289.925781 182.671875 290.121094 182.339844 C 288.667969 181.039062 286.761719 180.324219 284.789062 180.375 C 280.539062 180.472656 277.160156 183.996094 277.257812 188.230469 C 277.355469 192.40625 280.792969 195.738281 284.964844 195.738281 C 285.023438 195.738281 285.085938 195.734375 285.144531 195.734375 C 287.09375 195.691406 288.9375 194.914062 290.324219 193.578125 C 290.144531 193.273438 290.042969 192.925781 290.035156 192.558594 C 290.007812 191.390625 290.9375 190.417969 292.113281 190.390625 C 292.683594 190.375 293.222656 190.585938 293.632812 190.976562 Z M 209.070312 195.921875 C 209.085938 195.738281 209.027344 195.5625 208.910156 195.421875 C 208.773438 195.265625 208.578125 195.183594 208.386719 195.183594 C 208.230469 195.183594 208.070312 195.238281 207.941406 195.347656 C 207.65625 195.589844 207.621094 196.023438 207.863281 196.308594 C 207.984375 196.449219 208.148438 196.53125 208.332031 196.546875 C 208.511719 196.5625 208.691406 196.503906 208.832031 196.386719 C 208.96875 196.269531 209.054688 196.101562 209.070312 195.921875 Z M 215.332031 189.289062 C 215.171875 189.289062 215.015625 189.347656 214.890625 189.453125 C 214.75 189.570312 214.667969 189.738281 214.652344 189.917969 C 214.636719 190.101562 214.695312 190.277344 214.8125 190.417969 C 215.058594 190.703125 215.492188 190.738281 215.777344 190.496094 L 215.777344 190.492188 C 216.066406 190.25 216.101562 189.820312 215.855469 189.53125 C 215.738281 189.394531 215.574219 189.308594 215.390625 189.292969 C 215.371094 189.292969 215.351562 189.289062 215.332031 189.289062 Z M 210.007812 194.492188 C 210.378906 194.921875 210.554688 195.472656 210.507812 196.039062 C 210.464844 196.601562 210.199219 197.113281 209.765625 197.480469 C 209.378906 197.8125 208.894531 197.988281 208.390625 197.988281 C 208.332031 197.988281 208.273438 197.988281 208.214844 197.980469 C 207.648438 197.9375 207.132812 197.671875 206.765625 197.242188 C 206.589844 197.035156 206.460938 196.804688 206.375 196.5625 C 204.046875 196.320312 201.886719 195.199219 200.351562 193.402344 C 197.078125 189.574219 197.542969 183.804688 201.390625 180.542969 C 205.234375 177.285156 211.023438 177.75 214.296875 181.578125 C 215.863281 183.414062 216.628906 185.78125 216.449219 188.167969 C 216.636719 188.28125 216.808594 188.425781 216.957031 188.597656 C 217.71875 189.488281 217.609375 190.832031 216.714844 191.589844 C 216.316406 191.929688 215.824219 192.09375 215.335938 192.09375 C 214.734375 192.09375 214.132812 191.839844 213.714844 191.347656 C 213.34375 190.917969 213.167969 190.367188 213.210938 189.804688 C 213.257812 189.238281 213.523438 188.726562 213.953125 188.359375 C 214.261719 188.097656 214.632812 187.933594 215.023438 187.875 C 215.121094 185.929688 214.476562 184.011719 213.195312 182.511719 C 210.4375 179.285156 205.5625 178.894531 202.324219 181.640625 C 199.085938 184.386719 198.695312 189.246094 201.453125 192.472656 C 202.714844 193.949219 204.480469 194.886719 206.394531 195.117188 C 206.519531 194.792969 206.722656 194.492188 207.007812 194.25 C 207.902344 193.492188 209.246094 193.601562 210.007812 194.492188 Z M 292.964844 178.941406 L 292.964844 180.757812 L 298.703125 180.757812 L 298.703125 196.34375 L 300.636719 196.34375 L 300.636719 180.757812 L 306.378906 180.757812 L 306.378906 178.941406 Z M 265.621094 188.464844 L 274.957031 188.464844 L 274.957031 186.671875 L 265.621094 186.671875 L 265.621094 180.730469 L 276.054688 180.730469 L 276.054688 178.941406 L 263.691406 178.941406 L 263.691406 196.34375 L 276.175781 196.34375 L 276.175781 194.554688 L 265.621094 194.554688 Z M 258.925781 192.886719 L 248.152344 178.941406 L 246.34375 178.941406 L 246.34375 196.34375 L 248.226562 196.34375 L 248.226562 182.074219 L 259.269531 196.34375 L 260.808594 196.34375 L 260.808594 178.941406 L 258.925781 178.941406 Z M 241.578125 178.941406 L 243.460938 178.941406 L 243.460938 196.34375 L 241.921875 196.34375 L 230.875 182.074219 L 230.875 196.34375 L 228.996094 196.34375 L 228.996094 178.941406 L 230.804688 178.941406 L 241.578125 192.886719 L 241.578125 178.941406 " fill-opacity="1" fill-rule="nonzero"/></g><g fill="#ffffff" fill-opacity="1"><g transform="translate(73.850486, 195.002594)"><g><path d="M 11.078125 -8.359375 C 11.078125 -9.804688 10.921875 -10.960938 10.609375 -11.828125 C 10.304688 -12.703125 9.90625 -13.351562 9.40625 -13.78125 C 8.914062 -14.21875 8.375 -14.507812 7.78125 -14.65625 C 7.1875 -14.800781 6.609375 -14.875 6.046875 -14.875 L 4.09375 -14.875 L 4.09375 -1.671875 L 6.0625 -1.671875 C 6.65625 -1.671875 7.25 -1.765625 7.84375 -1.953125 C 8.4375 -2.140625 8.976562 -2.476562 9.46875 -2.96875 C 9.957031 -3.457031 10.347656 -4.132812 10.640625 -5 C 10.929688 -5.875 11.078125 -6.992188 11.078125 -8.359375 Z M 13.296875 -8.359375 C 13.296875 -6.628906 13.070312 -5.21875 12.625 -4.125 C 12.175781 -3.03125 11.582031 -2.179688 10.84375 -1.578125 C 10.101562 -0.984375 9.296875 -0.570312 8.421875 -0.34375 C 7.546875 -0.113281 6.675781 0 5.8125 0 L 2.015625 0 L 2.015625 -16.578125 L 5.546875 -16.578125 C 6.515625 -16.578125 7.457031 -16.46875 8.375 -16.25 C 9.300781 -16.03125 10.132812 -15.628906 10.875 -15.046875 C 11.613281 -14.472656 12.203125 -13.644531 12.640625 -12.5625 C 13.078125 -11.488281 13.296875 -10.085938 13.296875 -8.359375 Z M 13.296875 -8.359375 "/></g></g></g><g fill="#ffffff" fill-opacity="1"><g transform="translate(90.122383, 195.002594)"><g><path d="M 5.109375 -14.875 L 5.109375 -9.28125 L 11.25 -9.28125 L 11.25 -7.5625 L 5.109375 -7.5625 L 5.109375 -1.671875 L 12.65625 -1.671875 L 12.65625 0 L 3.015625 0 L 3.015625 -16.578125 L 12.4375 -16.578125 L 12.203125 -14.875 Z M 5.109375 -14.875 "/></g></g></g><g fill="#ffffff" fill-opacity="1"><g transform="translate(106.39428, 195.002594)"><g><path d="M 7.265625 -2.375 L 11.75 -16.578125 L 13.859375 -16.578125 L 8.3125 0 L 6.140625 0 L 0.59375 -16.578125 L 2.84375 -16.578125 Z M 7.265625 -2.375 "/></g></g></g><g fill="#ffffff" fill-opacity="1"><g transform="translate(122.666178, 195.002594)"><g><path d="M 8.21875 -14.78125 L 8.21875 0 L 6.140625 0 L 6.140625 -14.78125 L 0.96875 -14.78125 L 0.96875 -16.578125 L 13.46875 -16.578125 L 13.25 -14.78125 Z M 8.21875 -14.78125 "/></g></g></g><g fill="#ffffff" fill-opacity="1"><g transform="translate(138.938074, 195.002594)"><g><path d="M 10.4375 -4.21875 L 3.875 -4.21875 L 2.546875 0 L 0.5 0 L 5.890625 -16.578125 L 8.5625 -16.578125 L 13.953125 0 L 11.765625 0 Z M 4.421875 -5.953125 L 9.890625 -5.953125 L 7.171875 -14.8125 Z M 4.421875 -5.953125 "/></g></g></g><g fill="#ffffff" fill-opacity="1"><g transform="translate(155.209969, 195.002594)"><g><path d="M 12.921875 -4.59375 C 12.921875 -3.644531 12.679688 -2.800781 12.203125 -2.0625 C 11.734375 -1.332031 11.046875 -0.757812 10.140625 -0.34375 C 9.242188 0.0703125 8.148438 0.28125 6.859375 0.28125 C 5.648438 0.28125 4.550781 0.0976562 3.5625 -0.265625 C 2.582031 -0.640625 1.742188 -1.164062 1.046875 -1.84375 L 2.28125 -3.234375 C 2.863281 -2.703125 3.523438 -2.273438 4.265625 -1.953125 C 5.015625 -1.640625 5.890625 -1.484375 6.890625 -1.484375 C 7.566406 -1.484375 8.195312 -1.59375 8.78125 -1.8125 C 9.375 -2.03125 9.847656 -2.363281 10.203125 -2.8125 C 10.566406 -3.269531 10.75 -3.847656 10.75 -4.546875 C 10.75 -5.085938 10.644531 -5.546875 10.4375 -5.921875 C 10.226562 -6.296875 9.859375 -6.628906 9.328125 -6.921875 C 8.796875 -7.222656 8.054688 -7.515625 7.109375 -7.796875 C 6.023438 -8.109375 5.082031 -8.46875 4.28125 -8.875 C 3.476562 -9.28125 2.859375 -9.78125 2.421875 -10.375 C 1.984375 -10.96875 1.765625 -11.703125 1.765625 -12.578125 C 1.765625 -13.410156 1.992188 -14.144531 2.453125 -14.78125 C 2.910156 -15.425781 3.539062 -15.929688 4.34375 -16.296875 C 5.15625 -16.660156 6.085938 -16.84375 7.140625 -16.84375 C 8.285156 -16.84375 9.28125 -16.679688 10.125 -16.359375 C 10.976562 -16.035156 11.75 -15.566406 12.4375 -14.953125 L 11.203125 -13.59375 C 10.609375 -14.125 9.96875 -14.503906 9.28125 -14.734375 C 8.601562 -14.972656 7.914062 -15.09375 7.21875 -15.09375 C 6.613281 -15.09375 6.054688 -15.003906 5.546875 -14.828125 C 5.046875 -14.648438 4.644531 -14.378906 4.34375 -14.015625 C 4.050781 -13.660156 3.90625 -13.207031 3.90625 -12.65625 C 3.90625 -12.175781 4.03125 -11.765625 4.28125 -11.421875 C 4.539062 -11.078125 4.972656 -10.757812 5.578125 -10.46875 C 6.191406 -10.1875 7.023438 -9.890625 8.078125 -9.578125 C 8.929688 -9.328125 9.722656 -9.015625 10.453125 -8.640625 C 11.191406 -8.273438 11.785156 -7.769531 12.234375 -7.125 C 12.691406 -6.488281 12.921875 -5.644531 12.921875 -4.59375 Z M 12.921875 -4.59375 "/></g></g></g><g fill="#ffffff" fill-opacity="1"><g transform="translate(171.48187, 195.002594)"><g><path d="M 4.609375 0 L 2.53125 0 L 2.53125 -16.578125 L 4.609375 -16.578125 Z M 4.734375 -8.84375 L 11.25 -16.578125 L 13.671875 -16.578125 L 7.1875 -8.984375 L 14.125 0 L 11.515625 0 Z M 4.734375 -8.84375 "/></g></g></g></svg>