<svg xmlns="http://www.w3.org/2000/svg" xmlns:xlink="http://www.w3.org/1999/xlink" width="500" zoomAndPan="magnify" viewBox="0 0 375 223.499994" height="298" preserveAspectRatio="xMidYMid meet" version="1.0"><defs><g/><clipPath id="bf3d2ec18c"><path d="M 22.71875 64.648438 L 351.980469 64.648438 L 351.980469 158.1875 L 22.71875 158.1875 Z M 22.71875 64.648438 " clip-rule="nonzero"/></clipPath><clipPath id="39244640b0"><path d="M 31.910156 73.453125 L 192.84375 73.453125 L 192.84375 149.546875 L 31.910156 149.546875 Z M 31.910156 73.453125 " clip-rule="nonzero"/></clipPath><clipPath id="27165f8158"><path d="M 202 97.839844 L 343.597656 97.839844 L 343.597656 125.527344 L 202 125.527344 Z M 202 97.839844 " clip-rule="nonzero"/></clipPath></defs><g clip-path="url(#bf3d2ec18c)"><path stroke-linecap="butt" transform="matrix(0.747662, 0, 0, 0.747019, 22.719486, 64.647103)" fill="none" stroke-linejoin="miter" d="M -0.000984696 0.00178632 L 440.387395 0.00178632 L 440.387395 125.218308 L -0.000984696 125.218308 Z M -0.000984696 0.00178632 " stroke="#000000" stroke-width="6" stroke-opacity="1" stroke-miterlimit="4"/></g><g clip-path="url(#39244640b0)"><path fill="#000000" d="M 31.910156 73.453125 L 192.84375 73.453125 L 192.84375 149.546875 L 31.910156 149.546875 Z M 31.910156 73.453125 " fill-opacity="1" fill-rule="nonzero"/></g><g clip-path="url(#27165f8158)"><path fill="#000000" d="M 218.589844 109.355469 C 218.824219 109.371094 219.054688 109.296875 219.234375 109.140625 C 219.417969 108.984375 219.527344 108.769531 219.546875 108.527344 C 219.566406 108.289062 219.492188 108.054688 219.335938 107.871094 C 219.183594 107.6875 218.96875 107.578125 218.730469 107.558594 C 218.707031 107.558594 218.683594 107.554688 218.65625 107.554688 C 218.449219 107.554688 218.246094 107.628906 218.082031 107.769531 L 218.082031 107.773438 C 217.710938 108.089844 217.664062 108.660156 217.984375 109.039062 C 218.136719 109.222656 218.351562 109.332031 218.589844 109.355469 Z M 228.359375 100.101562 C 228.203125 99.921875 227.988281 99.808594 227.75 99.789062 C 227.726562 99.789062 227.703125 99.785156 227.679688 99.785156 C 227.46875 99.785156 227.265625 99.863281 227.105469 100 C 226.921875 100.15625 226.8125 100.375 226.792969 100.613281 C 226.773438 100.855469 226.847656 101.085938 227.003906 101.269531 C 227.15625 101.453125 227.371094 101.566406 227.609375 101.582031 C 227.84375 101.605469 228.074219 101.527344 228.257812 101.371094 C 228.628906 101.050781 228.675781 100.480469 228.359375 100.101562 Z M 238.113281 103.933594 C 242.359375 108.984375 241.753906 116.589844 236.765625 120.886719 C 234.53125 122.8125 231.792969 123.75 229.070312 123.75 C 225.703125 123.75 222.359375 122.316406 220.007812 119.523438 C 217.972656 117.105469 216.980469 113.984375 217.210938 110.839844 C 216.96875 110.6875 216.746094 110.496094 216.554688 110.269531 C 215.566406 109.09375 215.707031 107.324219 216.867188 106.324219 C 218.027344 105.324219 219.777344 105.46875 220.765625 106.644531 C 221.242188 107.210938 221.472656 107.933594 221.414062 108.679688 C 221.355469 109.425781 221.015625 110.101562 220.453125 110.585938 C 220.050781 110.929688 219.570312 111.148438 219.0625 111.222656 C 218.9375 113.789062 219.777344 116.320312 221.4375 118.292969 C 225.015625 122.546875 231.347656 123.0625 235.550781 119.441406 C 239.753906 115.824219 240.261719 109.417969 236.683594 105.164062 C 235.042969 103.214844 232.75 101.980469 230.265625 101.675781 C 230.105469 102.105469 229.839844 102.5 229.472656 102.816406 C 228.96875 103.253906 228.339844 103.484375 227.683594 103.484375 C 227.609375 103.484375 227.535156 103.480469 227.457031 103.476562 C 226.722656 103.414062 226.054688 103.070312 225.574219 102.5 C 225.097656 101.929688 224.863281 101.207031 224.921875 100.460938 C 224.984375 99.71875 225.324219 99.039062 225.886719 98.554688 C 226.449219 98.070312 227.167969 97.835938 227.902344 97.898438 C 228.636719 97.957031 229.308594 98.304688 229.785156 98.871094 C 230.015625 99.144531 230.179688 99.449219 230.289062 99.769531 C 233.316406 100.089844 236.121094 101.566406 238.113281 103.933594 Z M 325.882812 118.277344 C 325.875 118.039062 325.777344 117.816406 325.605469 117.648438 C 325.441406 117.488281 325.222656 117.398438 324.996094 117.398438 C 324.988281 117.398438 324.980469 117.398438 324.972656 117.398438 C 324.484375 117.410156 324.09375 117.824219 324.105469 118.320312 C 324.109375 118.5625 324.207031 118.785156 324.378906 118.953125 C 324.550781 119.117188 324.777344 119.207031 325.015625 119.199219 C 325.503906 119.1875 325.894531 118.773438 325.882812 118.277344 Z M 323.832031 106.335938 C 323.835938 106.578125 323.933594 106.800781 324.105469 106.96875 C 324.277344 107.132812 324.5 107.222656 324.738281 107.214844 C 324.976562 107.210938 325.199219 107.109375 325.363281 106.9375 C 325.527344 106.761719 325.613281 106.535156 325.609375 106.296875 C 325.597656 105.808594 325.199219 105.414062 324.71875 105.414062 C 324.710938 105.414062 324.707031 105.414062 324.699219 105.417969 C 324.207031 105.425781 323.820312 105.839844 323.832031 106.335938 Z M 326.902344 116.277344 C 327.4375 116.792969 327.742188 117.488281 327.757812 118.234375 C 327.792969 119.777344 326.582031 121.0625 325.058594 121.097656 C 325.035156 121.097656 325.011719 121.097656 324.992188 121.097656 C 324.667969 121.097656 324.351562 121.039062 324.050781 120.929688 C 321.898438 123.105469 318.996094 124.375 315.925781 124.445312 C 315.832031 124.449219 315.742188 124.449219 315.648438 124.449219 C 309.21875 124.449219 303.917969 119.238281 303.769531 112.699219 C 303.617188 106.070312 308.824219 100.550781 315.375 100.398438 C 318.519531 100.328125 321.535156 101.515625 323.804688 103.675781 C 324.070312 103.582031 324.355469 103.527344 324.65625 103.519531 C 326.175781 103.484375 327.449219 104.707031 327.484375 106.25 C 327.5 106.996094 327.230469 107.707031 326.71875 108.25 C 326.210938 108.789062 325.519531 109.09375 324.785156 109.113281 C 324.761719 109.113281 324.738281 109.113281 324.71875 109.113281 C 324.003906 109.113281 323.328125 108.839844 322.8125 108.339844 C 322.277344 107.824219 321.972656 107.128906 321.957031 106.378906 C 321.941406 105.835938 322.085938 105.328125 322.34375 104.890625 C 320.453125 103.171875 317.984375 102.234375 315.421875 102.296875 C 309.902344 102.425781 305.515625 107.074219 305.644531 112.65625 C 305.769531 118.160156 310.234375 122.554688 315.648438 122.554688 C 315.726562 122.554688 315.804688 122.550781 315.882812 122.550781 C 318.414062 122.492188 320.804688 121.46875 322.605469 119.707031 C 322.371094 119.304688 322.242188 118.84375 322.230469 118.363281 C 322.195312 116.824219 323.40625 115.539062 324.929688 115.503906 C 325.671875 115.484375 326.371094 115.761719 326.902344 116.277344 Z M 217.117188 122.796875 C 217.136719 122.554688 217.0625 122.324219 216.90625 122.140625 C 216.730469 121.929688 216.480469 121.824219 216.230469 121.824219 C 216.027344 121.824219 215.820312 121.894531 215.65625 122.039062 C 215.28125 122.359375 215.234375 122.929688 215.554688 123.308594 C 215.707031 123.492188 215.921875 123.601562 216.160156 123.621094 C 216.394531 123.640625 216.625 123.566406 216.808594 123.410156 C 216.988281 123.253906 217.097656 123.035156 217.117188 122.796875 Z M 225.25 114.054688 C 225.039062 114.054688 224.835938 114.128906 224.675781 114.269531 C 224.496094 114.425781 224.382812 114.640625 224.363281 114.882812 C 224.347656 115.121094 224.421875 115.355469 224.574219 115.539062 C 224.890625 115.914062 225.457031 115.960938 225.828125 115.640625 L 225.828125 115.636719 C 226.203125 115.320312 226.246094 114.75 225.929688 114.371094 C 225.773438 114.1875 225.558594 114.078125 225.324219 114.058594 C 225.296875 114.054688 225.273438 114.054688 225.25 114.054688 Z M 218.335938 120.910156 C 218.816406 121.480469 219.046875 122.203125 218.988281 122.949219 C 218.929688 123.691406 218.585938 124.371094 218.023438 124.855469 C 217.519531 125.289062 216.890625 125.523438 216.234375 125.523438 C 216.160156 125.523438 216.085938 125.519531 216.007812 125.511719 C 215.273438 125.453125 214.605469 125.105469 214.125 124.535156 C 213.894531 124.265625 213.730469 123.960938 213.621094 123.640625 C 210.59375 123.320312 207.789062 121.84375 205.796875 119.476562 C 201.550781 114.425781 202.15625 106.820312 207.144531 102.523438 C 212.136719 98.226562 219.652344 98.835938 223.902344 103.886719 C 225.9375 106.304688 226.929688 109.425781 226.699219 112.570312 C 226.945312 112.722656 227.167969 112.914062 227.355469 113.140625 C 228.34375 114.316406 228.203125 116.085938 227.042969 117.085938 C 226.523438 117.53125 225.886719 117.75 225.253906 117.75 C 224.472656 117.75 223.691406 117.417969 223.144531 116.769531 C 222.667969 116.199219 222.4375 115.476562 222.496094 114.730469 C 222.554688 113.984375 222.898438 113.308594 223.460938 112.824219 C 223.859375 112.480469 224.339844 112.265625 224.847656 112.1875 C 224.972656 109.621094 224.136719 107.09375 222.472656 105.117188 C 218.894531 100.863281 212.566406 100.347656 208.363281 103.96875 C 204.15625 107.585938 203.648438 113.992188 207.226562 118.246094 C 208.867188 120.195312 211.160156 121.429688 213.644531 121.734375 C 213.804688 121.308594 214.070312 120.910156 214.4375 120.59375 C 215.601562 119.59375 217.347656 119.734375 218.335938 120.910156 Z M 326.03125 100.410156 L 326.03125 102.800781 L 333.488281 102.800781 L 333.488281 123.351562 L 335.996094 123.351562 L 335.996094 102.800781 L 343.449219 102.800781 L 343.449219 100.410156 Z M 290.535156 112.960938 L 302.652344 112.960938 L 302.652344 110.601562 L 290.535156 110.601562 L 290.535156 102.769531 L 304.082031 102.769531 L 304.082031 100.410156 L 288.03125 100.410156 L 288.03125 123.351562 L 304.242188 123.351562 L 304.242188 120.992188 L 290.535156 120.992188 Z M 281.84375 118.796875 L 267.855469 100.410156 L 265.507812 100.410156 L 265.507812 123.351562 L 267.949219 123.351562 L 267.949219 104.539062 L 282.289062 123.351562 L 284.289062 123.351562 L 284.289062 100.410156 L 281.84375 100.410156 Z M 259.320312 100.410156 L 261.765625 100.410156 L 261.765625 123.351562 L 259.765625 123.351562 L 245.429688 104.539062 L 245.429688 123.351562 L 242.984375 123.351562 L 242.984375 100.410156 L 245.332031 100.410156 L 259.320312 118.796875 L 259.320312 100.410156 " fill-opacity="1" fill-rule="nonzero"/></g><g fill="#ffffff" fill-opacity="1"><g transform="translate(39.732099, 121.25549)"><g><path d="M 14.390625 -10.875 C 14.390625 -12.75 14.191406 -14.25 13.796875 -15.375 C 13.398438 -16.507812 12.878906 -17.359375 12.234375 -17.921875 C 11.585938 -18.484375 10.878906 -18.859375 10.109375 -19.046875 C 9.347656 -19.234375 8.597656 -19.328125 7.859375 -19.328125 L 5.328125 -19.328125 L 5.328125 -2.171875 L 7.890625 -2.171875 C 8.660156 -2.171875 9.425781 -2.289062 10.1875 -2.53125 C 10.957031 -2.78125 11.660156 -3.21875 12.296875 -3.84375 C 12.929688 -4.476562 13.4375 -5.363281 13.8125 -6.5 C 14.195312 -7.632812 14.390625 -9.09375 14.390625 -10.875 Z M 17.296875 -10.875 C 17.296875 -8.625 17 -6.785156 16.40625 -5.359375 C 15.820312 -3.929688 15.050781 -2.828125 14.09375 -2.046875 C 13.132812 -1.273438 12.082031 -0.738281 10.9375 -0.4375 C 9.800781 -0.144531 8.675781 0 7.5625 0 L 2.609375 0 L 2.609375 -21.546875 L 7.21875 -21.546875 C 8.476562 -21.546875 9.703125 -21.40625 10.890625 -21.125 C 12.085938 -20.84375 13.164062 -20.320312 14.125 -19.5625 C 15.09375 -18.8125 15.863281 -17.734375 16.4375 -16.328125 C 17.007812 -14.929688 17.296875 -13.113281 17.296875 -10.875 Z M 17.296875 -10.875 "/></g></g></g><g fill="#ffffff" fill-opacity="1"><g transform="translate(60.888935, 121.25549)"><g><path d="M 6.65625 -19.328125 L 6.65625 -12.0625 L 14.625 -12.0625 L 14.625 -9.828125 L 6.65625 -9.828125 L 6.65625 -2.171875 L 16.453125 -2.171875 L 16.453125 0 L 3.921875 0 L 3.921875 -21.546875 L 16.171875 -21.546875 L 15.859375 -19.328125 Z M 6.65625 -19.328125 "/></g></g></g><g fill="#ffffff" fill-opacity="1"><g transform="translate(82.045771, 121.25549)"><g><path d="M 9.453125 -3.078125 L 15.265625 -21.546875 L 18.015625 -21.546875 L 10.796875 0 L 7.984375 0 L 0.765625 -21.546875 L 3.6875 -21.546875 Z M 9.453125 -3.078125 "/></g></g></g><g fill="#ffffff" fill-opacity="1"><g transform="translate(103.202609, 121.25549)"><g><path d="M 10.6875 -19.21875 L 10.6875 0 L 7.984375 0 L 7.984375 -19.21875 L 1.25 -19.21875 L 1.25 -21.546875 L 17.515625 -21.546875 L 17.234375 -19.21875 Z M 10.6875 -19.21875 "/></g></g></g><g fill="#ffffff" fill-opacity="1"><g transform="translate(124.359443, 121.25549)"><g><path d="M 13.5625 -5.5 L 5.03125 -5.5 L 3.3125 0 L 0.640625 0 L 7.65625 -21.546875 L 11.125 -21.546875 L 18.140625 0 L 15.28125 0 Z M 5.75 -7.75 L 12.859375 -7.75 L 9.328125 -19.265625 Z M 5.75 -7.75 "/></g></g></g><g fill="#ffffff" fill-opacity="1"><g transform="translate(145.516276, 121.25549)"><g><path d="M 16.796875 -5.96875 C 16.796875 -4.726562 16.484375 -3.628906 15.859375 -2.671875 C 15.242188 -1.722656 14.351562 -0.976562 13.1875 -0.4375 C 12.019531 0.09375 10.597656 0.359375 8.921875 0.359375 C 7.347656 0.359375 5.921875 0.117188 4.640625 -0.359375 C 3.359375 -0.835938 2.265625 -1.515625 1.359375 -2.390625 L 2.96875 -4.203125 C 3.71875 -3.503906 4.578125 -2.945312 5.546875 -2.53125 C 6.523438 -2.125 7.664062 -1.921875 8.96875 -1.921875 C 9.84375 -1.921875 10.660156 -2.0625 11.421875 -2.34375 C 12.179688 -2.632812 12.796875 -3.070312 13.265625 -3.65625 C 13.734375 -4.25 13.96875 -5.003906 13.96875 -5.921875 C 13.96875 -6.617188 13.832031 -7.210938 13.5625 -7.703125 C 13.289062 -8.191406 12.8125 -8.625 12.125 -9 C 11.4375 -9.382812 10.476562 -9.757812 9.25 -10.125 C 7.832031 -10.539062 6.601562 -11.007812 5.5625 -11.53125 C 4.519531 -12.0625 3.710938 -12.710938 3.140625 -13.484375 C 2.578125 -14.253906 2.296875 -15.210938 2.296875 -16.359375 C 2.296875 -17.429688 2.59375 -18.382812 3.1875 -19.21875 C 3.78125 -20.050781 4.601562 -20.703125 5.65625 -21.171875 C 6.707031 -21.648438 7.914062 -21.890625 9.28125 -21.890625 C 10.769531 -21.890625 12.0625 -21.675781 13.15625 -21.25 C 14.257812 -20.832031 15.265625 -20.226562 16.171875 -19.4375 L 14.5625 -17.671875 C 13.789062 -18.359375 12.960938 -18.851562 12.078125 -19.15625 C 11.191406 -19.46875 10.289062 -19.625 9.375 -19.625 C 8.59375 -19.625 7.875 -19.503906 7.21875 -19.265625 C 6.570312 -19.035156 6.050781 -18.6875 5.65625 -18.21875 C 5.257812 -17.757812 5.0625 -17.171875 5.0625 -16.453125 C 5.0625 -15.828125 5.226562 -15.289062 5.5625 -14.84375 C 5.90625 -14.394531 6.472656 -13.984375 7.265625 -13.609375 C 8.054688 -13.242188 9.132812 -12.859375 10.5 -12.453125 C 11.613281 -12.128906 12.644531 -11.722656 13.59375 -11.234375 C 14.550781 -10.753906 15.320312 -10.097656 15.90625 -9.265625 C 16.5 -8.441406 16.796875 -7.34375 16.796875 -5.96875 Z M 16.796875 -5.96875 "/></g></g></g><g fill="#ffffff" fill-opacity="1"><g transform="translate(166.673117, 121.25549)"><g><path d="M 6 0 L 3.28125 0 L 3.28125 -21.546875 L 6 -21.546875 Z M 6.15625 -11.5 L 14.625 -21.546875 L 17.765625 -21.546875 L 9.34375 -11.671875 L 18.359375 0 L 14.96875 0 Z M 6.15625 -11.5 "/></g></g></g></svg>