<svg xmlns="http://www.w3.org/2000/svg" xmlns:xlink="http://www.w3.org/1999/xlink" width="500" zoomAndPan="magnify" viewBox="0 0 375 374.999991" height="500" preserveAspectRatio="xMidYMid meet" version="1.0"><defs><g/><clipPath id="50edcd5a15"><path d="M 60.765625 151.464844 L 314.265625 151.464844 L 314.265625 223.464844 L 60.765625 223.464844 Z M 60.765625 151.464844 " clip-rule="nonzero"/></clipPath><clipPath id="2377555fb8"><path d="M 67.835938 158.238281 L 191.609375 158.238281 L 191.609375 216.761719 L 67.835938 216.761719 Z M 67.835938 158.238281 " clip-rule="nonzero"/></clipPath><clipPath id="2613bfd209"><path d="M 198 177 L 306.484375 177 L 306.484375 197.992188 L 198 197.992188 Z M 198 177 " clip-rule="nonzero"/></clipPath></defs><g clip-path="url(#50edcd5a15)"><path stroke-linecap="butt" transform="matrix(0.750104, 0, 0, 0.749268, 60.765298, 151.465039)" fill="none" stroke-linejoin="miter" d="M 0.000435793 -0.000260392 L 337.953556 -0.000260392 L 337.953556 96.0935 L 0.000435793 96.0935 Z M 0.000435793 -0.000260392 " stroke="#ffffff" stroke-width="6" stroke-opacity="1" stroke-miterlimit="4"/></g><g clip-path="url(#2377555fb8)"><path fill="#ffffff" d="M 67.835938 158.238281 L 191.609375 158.238281 L 191.609375 216.761719 L 67.835938 216.761719 Z M 67.835938 158.238281 " fill-opacity="1" fill-rule="nonzero"/></g><g clip-path="url(#2613bfd209)"><path fill="#ffffff" d="M 210.203125 185.726562 C 210.382812 185.738281 210.5625 185.683594 210.703125 185.566406 C 210.839844 185.445312 210.925781 185.28125 210.941406 185.101562 C 210.953125 184.917969 210.898438 184.742188 210.777344 184.601562 C 210.660156 184.464844 210.496094 184.378906 210.3125 184.363281 C 210.292969 184.363281 210.273438 184.363281 210.257812 184.363281 C 210.09375 184.363281 209.9375 184.417969 209.8125 184.523438 L 209.8125 184.527344 C 209.527344 184.769531 209.492188 185.199219 209.734375 185.488281 C 209.855469 185.625 210.019531 185.710938 210.203125 185.726562 Z M 217.726562 178.710938 C 217.609375 178.570312 217.441406 178.488281 217.261719 178.472656 C 217.242188 178.472656 217.222656 178.46875 217.203125 178.46875 C 217.042969 178.46875 216.886719 178.527344 216.761719 178.632812 C 216.621094 178.75 216.539062 178.917969 216.523438 179.097656 C 216.507812 179.28125 216.566406 179.457031 216.683594 179.59375 C 216.804688 179.734375 216.96875 179.820312 217.152344 179.832031 C 217.332031 179.847656 217.511719 179.792969 217.648438 179.671875 C 217.9375 179.429688 217.972656 178.996094 217.726562 178.710938 Z M 225.242188 181.613281 C 228.511719 185.445312 228.046875 191.214844 224.203125 194.472656 C 222.484375 195.933594 220.375 196.644531 218.277344 196.644531 C 215.683594 196.644531 213.105469 195.558594 211.296875 193.441406 C 209.730469 191.605469 208.964844 189.238281 209.140625 186.851562 C 208.953125 186.738281 208.78125 186.59375 208.636719 186.421875 C 207.875 185.53125 207.984375 184.1875 208.878906 183.429688 C 209.769531 182.671875 211.117188 182.777344 211.878906 183.667969 C 212.25 184.101562 212.425781 184.648438 212.378906 185.214844 C 212.335938 185.78125 212.070312 186.292969 211.636719 186.660156 C 211.328125 186.921875 210.960938 187.085938 210.570312 187.144531 C 210.472656 189.089844 211.117188 191.007812 212.398438 192.507812 C 215.152344 195.734375 220.03125 196.125 223.265625 193.378906 C 226.503906 190.632812 226.898438 185.773438 224.140625 182.546875 C 222.878906 181.070312 221.109375 180.132812 219.195312 179.902344 C 219.074219 180.226562 218.871094 180.527344 218.585938 180.769531 C 218.199219 181.097656 217.714844 181.273438 217.210938 181.273438 C 217.152344 181.273438 217.09375 181.273438 217.035156 181.269531 C 216.46875 181.222656 215.953125 180.960938 215.585938 180.527344 C 215.214844 180.097656 215.039062 179.546875 215.082031 178.980469 C 215.128906 178.417969 215.390625 177.902344 215.824219 177.535156 C 216.257812 177.167969 216.8125 176.992188 217.375 177.035156 C 217.945312 177.082031 218.460938 177.347656 218.828125 177.777344 C 219.003906 177.984375 219.132812 178.214844 219.214844 178.457031 C 221.546875 178.699219 223.707031 179.820312 225.242188 181.613281 Z M 292.847656 192.496094 C 292.84375 192.3125 292.769531 192.144531 292.636719 192.015625 C 292.507812 191.894531 292.339844 191.828125 292.164062 191.828125 C 292.15625 191.828125 292.152344 191.828125 292.148438 191.828125 C 291.769531 191.835938 291.46875 192.148438 291.476562 192.527344 C 291.480469 192.710938 291.558594 192.878906 291.6875 193.003906 C 291.820312 193.128906 291.996094 193.199219 292.179688 193.191406 C 292.554688 193.183594 292.855469 192.871094 292.847656 192.496094 Z M 291.265625 183.4375 C 291.269531 183.621094 291.347656 183.789062 291.480469 183.917969 C 291.609375 184.042969 291.785156 184.109375 291.96875 184.105469 C 292.148438 184.101562 292.320312 184.023438 292.445312 183.894531 C 292.574219 183.761719 292.640625 183.589844 292.636719 183.40625 C 292.628906 183.035156 292.324219 182.738281 291.953125 182.738281 C 291.945312 182.738281 291.941406 182.738281 291.9375 182.742188 C 291.558594 182.75 291.257812 183.0625 291.265625 183.4375 Z M 293.632812 190.976562 C 294.046875 191.367188 294.277344 191.894531 294.292969 192.460938 C 294.320312 193.632812 293.386719 194.605469 292.210938 194.632812 C 292.195312 194.632812 292.179688 194.632812 292.160156 194.632812 C 291.910156 194.632812 291.667969 194.585938 291.4375 194.503906 C 289.777344 196.15625 287.542969 197.121094 285.179688 197.171875 C 285.105469 197.175781 285.035156 197.175781 284.964844 197.175781 C 280.011719 197.175781 275.929688 193.222656 275.8125 188.265625 C 275.699219 183.234375 279.707031 179.050781 284.753906 178.933594 C 287.175781 178.882812 289.5 179.78125 291.246094 181.421875 C 291.453125 181.347656 291.671875 181.304688 291.902344 181.300781 C 293.074219 181.277344 294.054688 182.203125 294.082031 183.375 C 294.09375 183.9375 293.886719 184.476562 293.492188 184.886719 C 293.101562 185.296875 292.570312 185.53125 292 185.542969 C 291.984375 185.542969 291.96875 185.542969 291.949219 185.542969 C 291.398438 185.542969 290.882812 185.335938 290.480469 184.957031 C 290.070312 184.566406 289.835938 184.039062 289.824219 183.472656 C 289.8125 183.058594 289.925781 182.671875 290.121094 182.339844 C 288.667969 181.039062 286.761719 180.324219 284.789062 180.375 C 280.539062 180.472656 277.160156 183.996094 277.257812 188.230469 C 277.355469 192.40625 280.792969 195.738281 284.964844 195.738281 C 285.023438 195.738281 285.085938 195.734375 285.144531 195.734375 C 287.09375 195.691406 288.9375 194.914062 290.324219 193.578125 C 290.144531 193.273438 290.042969 192.925781 290.035156 192.558594 C 290.007812 191.390625 290.9375 190.417969 292.113281 190.390625 C 292.683594 190.375 293.222656 190.585938 293.632812 190.976562 Z M 209.070312 195.921875 C 209.085938 195.738281 209.027344 195.5625 208.910156 195.421875 C 208.773438 195.265625 208.578125 195.183594 208.386719 195.183594 C 208.230469 195.183594 208.070312 195.238281 207.941406 195.347656 C 207.65625 195.589844 207.621094 196.023438 207.863281 196.308594 C 207.984375 196.449219 208.148438 196.53125 208.332031 196.546875 C 208.511719 196.5625 208.691406 196.503906 208.832031 196.386719 C 208.96875 196.269531 209.054688 196.101562 209.070312 195.921875 Z M 215.332031 189.289062 C 215.171875 189.289062 215.015625 189.347656 214.890625 189.453125 C 214.75 189.570312 214.667969 189.738281 214.652344 189.917969 C 214.636719 190.101562 214.695312 190.277344 214.8125 190.417969 C 215.058594 190.703125 215.492188 190.738281 215.777344 190.496094 L 215.777344 190.492188 C 216.066406 190.25 216.101562 189.820312 215.855469 189.53125 C 215.738281 189.394531 215.574219 189.308594 215.390625 189.292969 C 215.371094 189.292969 215.351562 189.289062 215.332031 189.289062 Z M 210.007812 194.492188 C 210.378906 194.921875 210.554688 195.472656 210.507812 196.039062 C 210.464844 196.601562 210.199219 197.113281 209.765625 197.480469 C 209.378906 197.8125 208.894531 197.988281 208.390625 197.988281 C 208.332031 197.988281 208.273438 197.988281 208.214844 197.980469 C 207.648438 197.9375 207.132812 197.671875 206.765625 197.242188 C 206.589844 197.035156 206.460938 196.804688 206.375 196.5625 C 204.046875 196.320312 201.886719 195.199219 200.351562 193.402344 C 197.078125 189.574219 197.542969 183.804688 201.390625 180.542969 C 205.234375 177.285156 211.023438 177.75 214.296875 181.578125 C 215.863281 183.414062 216.628906 185.78125 216.449219 188.167969 C 216.636719 188.28125 216.808594 188.425781 216.957031 188.597656 C 217.71875 189.488281 217.609375 190.832031 216.714844 191.589844 C 216.316406 191.929688 215.824219 192.09375 215.335938 192.09375 C 214.734375 192.09375 214.132812 191.839844 213.714844 191.347656 C 213.34375 190.917969 213.167969 190.367188 213.210938 189.804688 C 213.257812 189.238281 213.523438 188.726562 213.953125 188.359375 C 214.261719 188.097656 214.632812 187.933594 215.023438 187.875 C 215.121094 185.929688 214.476562 184.011719 213.195312 182.511719 C 210.4375 179.285156 205.5625 178.894531 202.324219 181.640625 C 199.085938 184.386719 198.695312 189.246094 201.453125 192.472656 C 202.714844 193.949219 204.480469 194.886719 206.394531 195.117188 C 206.519531 194.792969 206.722656 194.492188 207.007812 194.25 C 207.902344 193.492188 209.246094 193.601562 210.007812 194.492188 Z M 292.964844 178.941406 L 292.964844 180.757812 L 298.703125 180.757812 L 298.703125 196.34375 L 300.636719 196.34375 L 300.636719 180.757812 L 306.378906 180.757812 L 306.378906 178.941406 Z M 265.621094 188.464844 L 274.957031 188.464844 L 274.957031 186.671875 L 265.621094 186.671875 L 265.621094 180.730469 L 276.054688 180.730469 L 276.054688 178.941406 L 263.691406 178.941406 L 263.691406 196.34375 L 276.175781 196.34375 L 276.175781 194.554688 L 265.621094 194.554688 Z M 258.925781 192.886719 L 248.152344 178.941406 L 246.34375 178.941406 L 246.34375 196.34375 L 248.226562 196.34375 L 248.226562 182.074219 L 259.269531 196.34375 L 260.808594 196.34375 L 260.808594 178.941406 L 258.925781 178.941406 Z M 241.578125 178.941406 L 243.460938 178.941406 L 243.460938 196.34375 L 241.921875 196.34375 L 230.875 182.074219 L 230.875 196.34375 L 228.996094 196.34375 L 228.996094 178.941406 L 230.804688 178.941406 L 241.578125 192.886719 L 241.578125 178.941406 " fill-opacity="1" fill-rule="nonzero"/></g><g fill="#000000" fill-opacity="1"><g transform="translate(73.850486, 195.002594)"><g><path d="M 11.078125 -8.359375 C 11.078125 -9.804688 10.921875 -10.960938 10.609375 -11.828125 C 10.304688 -12.703125 9.90625 -13.351562 9.40625 -13.78125 C 8.914062 -14.21875 8.375 -14.507812 7.78125 -14.65625 C 7.1875 -14.800781 6.609375 -14.875 6.046875 -14.875 L 4.09375 -14.875 L 4.09375 -1.671875 L 6.0625 -1.671875 C 6.65625 -1.671875 7.25 -1.765625 7.84375 -1.953125 C 8.4375 -2.140625 8.976562 -2.476562 9.46875 -2.96875 C 9.957031 -3.457031 10.347656 -4.132812 10.640625 -5 C 10.929688 -5.875 11.078125 -6.992188 11.078125 -8.359375 Z M 13.296875 -8.359375 C 13.296875 -6.628906 13.070312 -5.21875 12.625 -4.125 C 12.175781 -3.03125 11.582031 -2.179688 10.84375 -1.578125 C 10.101562 -0.984375 9.296875 -0.570312 8.421875 -0.34375 C 7.546875 -0.113281 6.675781 0 5.8125 0 L 2.015625 0 L 2.015625 -16.578125 L 5.546875 -16.578125 C 6.515625 -16.578125 7.457031 -16.46875 8.375 -16.25 C 9.300781 -16.03125 10.132812 -15.628906 10.875 -15.046875 C 11.613281 -14.472656 12.203125 -13.644531 12.640625 -12.5625 C 13.078125 -11.488281 13.296875 -10.085938 13.296875 -8.359375 Z M 13.296875 -8.359375 "/></g></g></g><g fill="#000000" fill-opacity="1"><g transform="translate(90.122383, 195.002594)"><g><path d="M 5.109375 -14.875 L 5.109375 -9.28125 L 11.25 -9.28125 L 11.25 -7.5625 L 5.109375 -7.5625 L 5.109375 -1.671875 L 12.65625 -1.671875 L 12.65625 0 L 3.015625 0 L 3.015625 -16.578125 L 12.4375 -16.578125 L 12.203125 -14.875 Z M 5.109375 -14.875 "/></g></g></g><g fill="#000000" fill-opacity="1"><g transform="translate(106.39428, 195.002594)"><g><path d="M 7.265625 -2.375 L 11.75 -16.578125 L 13.859375 -16.578125 L 8.3125 0 L 6.140625 0 L 0.59375 -16.578125 L 2.84375 -16.578125 Z M 7.265625 -2.375 "/></g></g></g><g fill="#000000" fill-opacity="1"><g transform="translate(122.666178, 195.002594)"><g><path d="M 8.21875 -14.78125 L 8.21875 0 L 6.140625 0 L 6.140625 -14.78125 L 0.96875 -14.78125 L 0.96875 -16.578125 L 13.46875 -16.578125 L 13.25 -14.78125 Z M 8.21875 -14.78125 "/></g></g></g><g fill="#000000" fill-opacity="1"><g transform="translate(138.938074, 195.002594)"><g><path d="M 10.4375 -4.21875 L 3.875 -4.21875 L 2.546875 0 L 0.5 0 L 5.890625 -16.578125 L 8.5625 -16.578125 L 13.953125 0 L 11.765625 0 Z M 4.421875 -5.953125 L 9.890625 -5.953125 L 7.171875 -14.8125 Z M 4.421875 -5.953125 "/></g></g></g><g fill="#000000" fill-opacity="1"><g transform="translate(155.209969, 195.002594)"><g><path d="M 12.921875 -4.59375 C 12.921875 -3.644531 12.679688 -2.800781 12.203125 -2.0625 C 11.734375 -1.332031 11.046875 -0.757812 10.140625 -0.34375 C 9.242188 0.0703125 8.148438 0.28125 6.859375 0.28125 C 5.648438 0.28125 4.550781 0.0976562 3.5625 -0.265625 C 2.582031 -0.640625 1.742188 -1.164062 1.046875 -1.84375 L 2.28125 -3.234375 C 2.863281 -2.703125 3.523438 -2.273438 4.265625 -1.953125 C 5.015625 -1.640625 5.890625 -1.484375 6.890625 -1.484375 C 7.566406 -1.484375 8.195312 -1.59375 8.78125 -1.8125 C 9.375 -2.03125 9.847656 -2.363281 10.203125 -2.8125 C 10.566406 -3.269531 10.75 -3.847656 10.75 -4.546875 C 10.75 -5.085938 10.644531 -5.546875 10.4375 -5.921875 C 10.226562 -6.296875 9.859375 -6.628906 9.328125 -6.921875 C 8.796875 -7.222656 8.054688 -7.515625 7.109375 -7.796875 C 6.023438 -8.109375 5.082031 -8.46875 4.28125 -8.875 C 3.476562 -9.28125 2.859375 -9.78125 2.421875 -10.375 C 1.984375 -10.96875 1.765625 -11.703125 1.765625 -12.578125 C 1.765625 -13.410156 1.992188 -14.144531 2.453125 -14.78125 C 2.910156 -15.425781 3.539062 -15.929688 4.34375 -16.296875 C 5.15625 -16.660156 6.085938 -16.84375 7.140625 -16.84375 C 8.285156 -16.84375 9.28125 -16.679688 10.125 -16.359375 C 10.976562 -16.035156 11.75 -15.566406 12.4375 -14.953125 L 11.203125 -13.59375 C 10.609375 -14.125 9.96875 -14.503906 9.28125 -14.734375 C 8.601562 -14.972656 7.914062 -15.09375 7.21875 -15.09375 C 6.613281 -15.09375 6.054688 -15.003906 5.546875 -14.828125 C 5.046875 -14.648438 4.644531 -14.378906 4.34375 -14.015625 C 4.050781 -13.660156 3.90625 -13.207031 3.90625 -12.65625 C 3.90625 -12.175781 4.03125 -11.765625 4.28125 -11.421875 C 4.539062 -11.078125 4.972656 -10.757812 5.578125 -10.46875 C 6.191406 -10.1875 7.023438 -9.890625 8.078125 -9.578125 C 8.929688 -9.328125 9.722656 -9.015625 10.453125 -8.640625 C 11.191406 -8.273438 11.785156 -7.769531 12.234375 -7.125 C 12.691406 -6.488281 12.921875 -5.644531 12.921875 -4.59375 Z M 12.921875 -4.59375 "/></g></g></g><g fill="#000000" fill-opacity="1"><g transform="translate(171.48187, 195.002594)"><g><path d="M 4.609375 0 L 2.53125 0 L 2.53125 -16.578125 L 4.609375 -16.578125 Z M 4.734375 -8.84375 L 11.25 -16.578125 L 13.671875 -16.578125 L 7.1875 -8.984375 L 14.125 0 L 11.515625 0 Z M 4.734375 -8.84375 "/></g></g></g></svg>